<mxfile host="app.diagrams.net" agent="Mozilla/5.0 (Windows NT 10.0; Win64; x64) AppleWebKit/537.36 (KHTML, like Gecko) Chrome/128.0.0.0 Safari/537.36" version="24.7.14">
  <diagram name="Página-1" id="SJ8JCqSfgARfuGp7lzlv">
    <mxGraphModel dx="4400" dy="2130" grid="1" gridSize="10" guides="1" tooltips="1" connect="1" arrows="1" fold="1" page="1" pageScale="1" pageWidth="827" pageHeight="1169" math="0" shadow="0">
      <root>
        <mxCell id="0" />
        <mxCell id="1" parent="0" />
        <mxCell id="aHgLXVywDQTCK9k4DMpL-1" value="Inicio" style="ellipse;whiteSpace=wrap;html=1;" vertex="1" parent="1">
          <mxGeometry x="257.5" y="20" width="140" height="80" as="geometry" />
        </mxCell>
        <mxCell id="aHgLXVywDQTCK9k4DMpL-221" style="edgeStyle=orthogonalEdgeStyle;rounded=0;orthogonalLoop=1;jettySize=auto;html=1;exitX=1;exitY=0.5;exitDx=0;exitDy=0;" edge="1" parent="1">
          <mxGeometry relative="1" as="geometry">
            <mxPoint x="1112.5144927536232" y="777.5015942028986" as="targetPoint" />
            <mxPoint x="376.25" y="151.99" as="sourcePoint" />
            <Array as="points">
              <mxPoint x="1112.5" y="151.99" />
            </Array>
          </mxGeometry>
        </mxCell>
        <mxCell id="aHgLXVywDQTCK9k4DMpL-3" value="while" style="rhombus;whiteSpace=wrap;html=1;" vertex="1" parent="1">
          <mxGeometry x="268.75" y="120" width="115" height="80" as="geometry" />
        </mxCell>
        <mxCell id="aHgLXVywDQTCK9k4DMpL-4" value="Menu != 6" style="rounded=0;whiteSpace=wrap;html=1;" vertex="1" parent="1">
          <mxGeometry x="266.25" y="230" width="120" height="60" as="geometry" />
        </mxCell>
        <mxCell id="aHgLXVywDQTCK9k4DMpL-6" value="" style="endArrow=classic;html=1;rounded=0;exitX=0.5;exitY=1;exitDx=0;exitDy=0;entryX=0.5;entryY=0;entryDx=0;entryDy=0;" edge="1" parent="1" source="aHgLXVywDQTCK9k4DMpL-1" target="aHgLXVywDQTCK9k4DMpL-3">
          <mxGeometry width="50" height="50" relative="1" as="geometry">
            <mxPoint x="367.5" y="250" as="sourcePoint" />
            <mxPoint x="417.5" y="200" as="targetPoint" />
          </mxGeometry>
        </mxCell>
        <mxCell id="aHgLXVywDQTCK9k4DMpL-7" value="" style="endArrow=classic;html=1;rounded=0;exitX=0.5;exitY=1;exitDx=0;exitDy=0;entryX=0.5;entryY=0;entryDx=0;entryDy=0;" edge="1" parent="1" source="aHgLXVywDQTCK9k4DMpL-3" target="aHgLXVywDQTCK9k4DMpL-4">
          <mxGeometry width="50" height="50" relative="1" as="geometry">
            <mxPoint x="367.5" y="250" as="sourcePoint" />
            <mxPoint x="417.5" y="200" as="targetPoint" />
          </mxGeometry>
        </mxCell>
        <mxCell id="aHgLXVywDQTCK9k4DMpL-8" value="" style="endArrow=classic;html=1;rounded=0;exitX=0;exitY=0.5;exitDx=0;exitDy=0;entryX=0;entryY=0.5;entryDx=0;entryDy=0;" edge="1" parent="1" source="aHgLXVywDQTCK9k4DMpL-4" target="aHgLXVywDQTCK9k4DMpL-3">
          <mxGeometry width="50" height="50" relative="1" as="geometry">
            <mxPoint x="197.5" y="360" as="sourcePoint" />
            <mxPoint x="167.5" y="290" as="targetPoint" />
            <Array as="points">
              <mxPoint x="180" y="260" />
              <mxPoint x="180" y="160" />
            </Array>
          </mxGeometry>
        </mxCell>
        <mxCell id="aHgLXVywDQTCK9k4DMpL-10" value="Verdadeiro" style="text;html=1;align=center;verticalAlign=middle;whiteSpace=wrap;rounded=0;" vertex="1" parent="1">
          <mxGeometry x="187.5" y="230" width="60" height="30" as="geometry" />
        </mxCell>
        <mxCell id="aHgLXVywDQTCK9k4DMpL-12" value="Opção do menu" style="shape=display;whiteSpace=wrap;html=1;" vertex="1" parent="1">
          <mxGeometry x="266.25" y="310" width="110" height="40" as="geometry" />
        </mxCell>
        <mxCell id="aHgLXVywDQTCK9k4DMpL-17" value="" style="endArrow=classic;html=1;rounded=0;exitX=0.5;exitY=1;exitDx=0;exitDy=0;entryX=0;entryY=0;entryDx=58.75;entryDy=0;entryPerimeter=0;" edge="1" parent="1" source="aHgLXVywDQTCK9k4DMpL-4" target="aHgLXVywDQTCK9k4DMpL-12">
          <mxGeometry width="50" height="50" relative="1" as="geometry">
            <mxPoint x="337.5" y="400" as="sourcePoint" />
            <mxPoint x="327.5" y="352" as="targetPoint" />
          </mxGeometry>
        </mxCell>
        <mxCell id="aHgLXVywDQTCK9k4DMpL-18" value="menu == 1" style="rhombus;whiteSpace=wrap;html=1;" vertex="1" parent="1">
          <mxGeometry x="130" y="400" width="100" height="80" as="geometry" />
        </mxCell>
        <mxCell id="aHgLXVywDQTCK9k4DMpL-19" value="" style="endArrow=classic;html=1;rounded=0;exitX=0.473;exitY=1.025;exitDx=0;exitDy=0;exitPerimeter=0;entryX=0.5;entryY=0;entryDx=0;entryDy=0;" edge="1" parent="1" source="aHgLXVywDQTCK9k4DMpL-12" target="aHgLXVywDQTCK9k4DMpL-18">
          <mxGeometry width="50" height="50" relative="1" as="geometry">
            <mxPoint x="447.5" y="490" as="sourcePoint" />
            <mxPoint x="497.5" y="440" as="targetPoint" />
            <Array as="points">
              <mxPoint x="318" y="380" />
              <mxPoint x="180" y="380" />
            </Array>
          </mxGeometry>
        </mxCell>
        <mxCell id="aHgLXVywDQTCK9k4DMpL-20" value="pesoFaceis" style="shape=display;whiteSpace=wrap;html=1;" vertex="1" parent="1">
          <mxGeometry x="50" y="480" width="110" height="40" as="geometry" />
        </mxCell>
        <mxCell id="aHgLXVywDQTCK9k4DMpL-21" value="pesoMedias" style="shape=display;whiteSpace=wrap;html=1;" vertex="1" parent="1">
          <mxGeometry x="50" y="540" width="110" height="40" as="geometry" />
        </mxCell>
        <mxCell id="aHgLXVywDQTCK9k4DMpL-22" value="pesoDificeis" style="shape=display;whiteSpace=wrap;html=1;" vertex="1" parent="1">
          <mxGeometry x="50" y="605" width="110" height="40" as="geometry" />
        </mxCell>
        <mxCell id="aHgLXVywDQTCK9k4DMpL-24" value="" style="endArrow=classic;html=1;rounded=0;exitX=0;exitY=0;exitDx=58.75;exitDy=40;exitPerimeter=0;entryX=0;entryY=0;entryDx=58.75;entryDy=0;entryPerimeter=0;" edge="1" parent="1" source="aHgLXVywDQTCK9k4DMpL-20" target="aHgLXVywDQTCK9k4DMpL-21">
          <mxGeometry width="50" height="50" relative="1" as="geometry">
            <mxPoint x="115" y="545" as="sourcePoint" />
            <mxPoint x="165" y="495" as="targetPoint" />
          </mxGeometry>
        </mxCell>
        <mxCell id="aHgLXVywDQTCK9k4DMpL-25" value="" style="endArrow=classic;html=1;rounded=0;exitX=0;exitY=0;exitDx=58.75;exitDy=40;exitPerimeter=0;entryX=0;entryY=0;entryDx=58.75;entryDy=0;entryPerimeter=0;" edge="1" parent="1" source="aHgLXVywDQTCK9k4DMpL-21" target="aHgLXVywDQTCK9k4DMpL-22">
          <mxGeometry width="50" height="50" relative="1" as="geometry">
            <mxPoint x="144.58" y="655" as="sourcePoint" />
            <mxPoint x="144.58" y="675" as="targetPoint" />
          </mxGeometry>
        </mxCell>
        <mxCell id="aHgLXVywDQTCK9k4DMpL-26" value="menu == 2" style="rhombus;whiteSpace=wrap;html=1;" vertex="1" parent="1">
          <mxGeometry x="247.5" y="470" width="102.5" height="80" as="geometry" />
        </mxCell>
        <mxCell id="aHgLXVywDQTCK9k4DMpL-28" value="Nome do grupo [i]" style="shape=display;whiteSpace=wrap;html=1;" vertex="1" parent="1">
          <mxGeometry x="170" y="562.5" width="110" height="40" as="geometry" />
        </mxCell>
        <mxCell id="aHgLXVywDQTCK9k4DMpL-33" value="" style="endArrow=classic;html=1;rounded=0;exitX=0;exitY=0.5;exitDx=0;exitDy=0;entryX=0;entryY=0;entryDx=58.75;entryDy=0;entryPerimeter=0;" edge="1" parent="1" source="aHgLXVywDQTCK9k4DMpL-26" target="aHgLXVywDQTCK9k4DMpL-28">
          <mxGeometry width="50" height="50" relative="1" as="geometry">
            <mxPoint x="355" y="570" as="sourcePoint" />
            <mxPoint x="405" y="520" as="targetPoint" />
            <Array as="points">
              <mxPoint x="230" y="510" />
            </Array>
          </mxGeometry>
        </mxCell>
        <mxCell id="aHgLXVywDQTCK9k4DMpL-34" value="menu == 3" style="rhombus;whiteSpace=wrap;html=1;" vertex="1" parent="1">
          <mxGeometry x="376.25" y="530" width="100" height="80" as="geometry" />
        </mxCell>
        <mxCell id="aHgLXVywDQTCK9k4DMpL-36" value="questões fáceis&lt;div&gt;grupo[i]&lt;br&gt;&lt;/div&gt;" style="shape=display;whiteSpace=wrap;html=1;" vertex="1" parent="1">
          <mxGeometry x="287.5" y="602.5" width="120" height="40" as="geometry" />
        </mxCell>
        <mxCell id="aHgLXVywDQTCK9k4DMpL-57" value="" style="edgeStyle=orthogonalEdgeStyle;rounded=0;orthogonalLoop=1;jettySize=auto;html=1;" edge="1" parent="1" source="aHgLXVywDQTCK9k4DMpL-46" target="aHgLXVywDQTCK9k4DMpL-48">
          <mxGeometry relative="1" as="geometry" />
        </mxCell>
        <mxCell id="aHgLXVywDQTCK9k4DMpL-46" value="questões médias&lt;div&gt;grupo[i]&lt;/div&gt;" style="shape=display;whiteSpace=wrap;html=1;" vertex="1" parent="1">
          <mxGeometry x="287.5" y="662.5" width="120" height="40" as="geometry" />
        </mxCell>
        <mxCell id="aHgLXVywDQTCK9k4DMpL-59" value="" style="edgeStyle=orthogonalEdgeStyle;rounded=0;orthogonalLoop=1;jettySize=auto;html=1;" edge="1" parent="1" source="aHgLXVywDQTCK9k4DMpL-48" target="aHgLXVywDQTCK9k4DMpL-58">
          <mxGeometry relative="1" as="geometry" />
        </mxCell>
        <mxCell id="aHgLXVywDQTCK9k4DMpL-48" value="questões difíceis&lt;div&gt;grupo[i]&lt;/div&gt;" style="shape=display;whiteSpace=wrap;html=1;" vertex="1" parent="1">
          <mxGeometry x="282.5" y="717.5" width="130" height="45" as="geometry" />
        </mxCell>
        <mxCell id="aHgLXVywDQTCK9k4DMpL-56" style="edgeStyle=orthogonalEdgeStyle;rounded=0;orthogonalLoop=1;jettySize=auto;html=1;exitX=0;exitY=0;exitDx=58.75;exitDy=40;exitPerimeter=0;entryX=0;entryY=0;entryDx=58.75;entryDy=0;entryPerimeter=0;" edge="1" parent="1" source="aHgLXVywDQTCK9k4DMpL-36" target="aHgLXVywDQTCK9k4DMpL-46">
          <mxGeometry relative="1" as="geometry" />
        </mxCell>
        <mxCell id="aHgLXVywDQTCK9k4DMpL-58" value="Tempo de prova&amp;nbsp;&lt;div&gt;(minuto)&amp;nbsp;&lt;span style=&quot;background-color: initial;&quot;&gt;grupo[i]&lt;/span&gt;&lt;/div&gt;" style="shape=display;whiteSpace=wrap;html=1;" vertex="1" parent="1">
          <mxGeometry x="280" y="782.5" width="135" height="40" as="geometry" />
        </mxCell>
        <mxCell id="aHgLXVywDQTCK9k4DMpL-60" value="menu == 4" style="rhombus;whiteSpace=wrap;html=1;" vertex="1" parent="1">
          <mxGeometry x="600" y="602.5" width="100" height="80" as="geometry" />
        </mxCell>
        <mxCell id="aHgLXVywDQTCK9k4DMpL-63" value="totalPontos[i] =&amp;nbsp;&lt;div&gt;fáceis[i] * pesofaceis +&amp;nbsp;&lt;/div&gt;&lt;div&gt;medias[i] * pesoMedias + dificeis[i] * pesoDificeis&lt;/div&gt;" style="rounded=0;whiteSpace=wrap;html=1;" vertex="1" parent="1">
          <mxGeometry x="257.5" y="852.5" width="180" height="70" as="geometry" />
        </mxCell>
        <mxCell id="aHgLXVywDQTCK9k4DMpL-66" value="" style="endArrow=classic;html=1;rounded=0;exitX=0.515;exitY=1.029;exitDx=0;exitDy=0;exitPerimeter=0;" edge="1" parent="1" source="aHgLXVywDQTCK9k4DMpL-58" target="aHgLXVywDQTCK9k4DMpL-63">
          <mxGeometry width="50" height="50" relative="1" as="geometry">
            <mxPoint x="380" y="885" as="sourcePoint" />
            <mxPoint x="430" y="835" as="targetPoint" />
          </mxGeometry>
        </mxCell>
        <mxCell id="aHgLXVywDQTCK9k4DMpL-67" value="i = 1 até 5" style="shape=loopLimit;whiteSpace=wrap;html=1;" vertex="1" parent="1">
          <mxGeometry x="560" y="702.5" width="100" height="35" as="geometry" />
        </mxCell>
        <mxCell id="aHgLXVywDQTCK9k4DMpL-69" value="&lt;div style=&quot;font-family: Consolas, &amp;quot;Courier New&amp;quot;, monospace; line-height: 19px; white-space: pre;&quot;&gt;&lt;font style=&quot;font-size: 11px;&quot;&gt;totalPontos[i] &amp;lt; &lt;/font&gt;&lt;/div&gt;&lt;div style=&quot;font-family: Consolas, &amp;quot;Courier New&amp;quot;, monospace; line-height: 19px; white-space: pre;&quot;&gt;&lt;font style=&quot;font-size: 11px;&quot;&gt;totalPontos[i]&lt;/font&gt;&lt;/div&gt;" style="rhombus;whiteSpace=wrap;html=1;" vertex="1" parent="1">
          <mxGeometry x="540" y="757.5" width="140" height="100" as="geometry" />
        </mxCell>
        <mxCell id="aHgLXVywDQTCK9k4DMpL-72" value="" style="endArrow=classic;html=1;rounded=0;exitX=0;exitY=0.5;exitDx=0;exitDy=0;entryX=0;entryY=0;entryDx=58.75;entryDy=0;entryPerimeter=0;" edge="1" parent="1" source="aHgLXVywDQTCK9k4DMpL-18" target="aHgLXVywDQTCK9k4DMpL-20">
          <mxGeometry width="50" height="50" relative="1" as="geometry">
            <mxPoint x="80" y="560" as="sourcePoint" />
            <mxPoint x="130" y="510" as="targetPoint" />
            <Array as="points">
              <mxPoint x="109" y="440" />
            </Array>
          </mxGeometry>
        </mxCell>
        <mxCell id="aHgLXVywDQTCK9k4DMpL-74" value="Falso" style="text;html=1;align=center;verticalAlign=middle;whiteSpace=wrap;rounded=0;" vertex="1" parent="1">
          <mxGeometry x="220" y="415" width="60" height="30" as="geometry" />
        </mxCell>
        <mxCell id="aHgLXVywDQTCK9k4DMpL-75" value="" style="endArrow=classic;html=1;rounded=0;exitX=1;exitY=0.5;exitDx=0;exitDy=0;entryX=0.5;entryY=0;entryDx=0;entryDy=0;" edge="1" parent="1" source="aHgLXVywDQTCK9k4DMpL-18" target="aHgLXVywDQTCK9k4DMpL-26">
          <mxGeometry width="50" height="50" relative="1" as="geometry">
            <mxPoint x="310" y="480" as="sourcePoint" />
            <mxPoint x="360" y="460" as="targetPoint" />
            <Array as="points">
              <mxPoint x="299" y="440" />
            </Array>
          </mxGeometry>
        </mxCell>
        <mxCell id="aHgLXVywDQTCK9k4DMpL-76" value="verdadeiro" style="text;html=1;align=center;verticalAlign=middle;whiteSpace=wrap;rounded=0;" vertex="1" parent="1">
          <mxGeometry x="201.25" y="490" width="47.5" height="20" as="geometry" />
        </mxCell>
        <mxCell id="aHgLXVywDQTCK9k4DMpL-77" value="verdadeiro" style="text;html=1;align=center;verticalAlign=middle;whiteSpace=wrap;rounded=0;" vertex="1" parent="1">
          <mxGeometry x="75" y="415" width="60" height="25" as="geometry" />
        </mxCell>
        <mxCell id="aHgLXVywDQTCK9k4DMpL-79" value="Falso" style="text;html=1;align=center;verticalAlign=middle;whiteSpace=wrap;rounded=0;" vertex="1" parent="1">
          <mxGeometry x="343.75" y="485" width="50" height="25" as="geometry" />
        </mxCell>
        <mxCell id="aHgLXVywDQTCK9k4DMpL-80" value="" style="endArrow=classic;html=1;rounded=0;exitX=1;exitY=0.5;exitDx=0;exitDy=0;entryX=0.5;entryY=0;entryDx=0;entryDy=0;" edge="1" parent="1" source="aHgLXVywDQTCK9k4DMpL-26" target="aHgLXVywDQTCK9k4DMpL-34">
          <mxGeometry width="50" height="50" relative="1" as="geometry">
            <mxPoint x="350" y="600" as="sourcePoint" />
            <mxPoint x="400" y="550" as="targetPoint" />
            <Array as="points">
              <mxPoint x="426" y="510" />
            </Array>
          </mxGeometry>
        </mxCell>
        <mxCell id="aHgLXVywDQTCK9k4DMpL-81" value="" style="endArrow=classic;html=1;rounded=0;exitX=0;exitY=0.5;exitDx=0;exitDy=0;entryX=0.501;entryY=0;entryDx=0;entryDy=0;entryPerimeter=0;" edge="1" parent="1" source="aHgLXVywDQTCK9k4DMpL-34" target="aHgLXVywDQTCK9k4DMpL-36">
          <mxGeometry width="50" height="50" relative="1" as="geometry">
            <mxPoint x="390" y="660" as="sourcePoint" />
            <mxPoint x="440" y="610" as="targetPoint" />
            <Array as="points">
              <mxPoint x="348" y="570" />
            </Array>
          </mxGeometry>
        </mxCell>
        <mxCell id="aHgLXVywDQTCK9k4DMpL-82" value="verdadeiro" style="text;html=1;align=center;verticalAlign=middle;whiteSpace=wrap;rounded=0;" vertex="1" parent="1">
          <mxGeometry x="328.75" y="550" width="47.5" height="20" as="geometry" />
        </mxCell>
        <mxCell id="aHgLXVywDQTCK9k4DMpL-83" value="Falso" style="text;html=1;align=center;verticalAlign=middle;whiteSpace=wrap;rounded=0;" vertex="1" parent="1">
          <mxGeometry x="476.25" y="547.5" width="50" height="25" as="geometry" />
        </mxCell>
        <mxCell id="aHgLXVywDQTCK9k4DMpL-86" value="" style="endArrow=classic;html=1;rounded=0;exitX=1;exitY=0.5;exitDx=0;exitDy=0;entryX=0.487;entryY=0.007;entryDx=0;entryDy=0;entryPerimeter=0;" edge="1" parent="1" target="aHgLXVywDQTCK9k4DMpL-60">
          <mxGeometry width="50" height="50" relative="1" as="geometry">
            <mxPoint x="476.25" y="567" as="sourcePoint" />
            <mxPoint x="576.2500000000001" y="601.98" as="targetPoint" />
            <Array as="points">
              <mxPoint x="550" y="567" />
              <mxPoint x="649" y="567" />
            </Array>
          </mxGeometry>
        </mxCell>
        <mxCell id="aHgLXVywDQTCK9k4DMpL-87" value="" style="endArrow=classic;html=1;rounded=0;exitX=0;exitY=0.75;exitDx=0;exitDy=0;entryX=0.5;entryY=0;entryDx=0;entryDy=0;" edge="1" parent="1" target="aHgLXVywDQTCK9k4DMpL-69">
          <mxGeometry width="50" height="50" relative="1" as="geometry">
            <mxPoint x="560" y="726.25" as="sourcePoint" />
            <mxPoint x="536.25" y="827.5" as="targetPoint" />
            <Array as="points">
              <mxPoint x="540" y="727.5" />
              <mxPoint x="540" y="747.5" />
              <mxPoint x="610" y="747.5" />
            </Array>
          </mxGeometry>
        </mxCell>
        <mxCell id="aHgLXVywDQTCK9k4DMpL-88" value="&lt;font style=&quot;font-size: 8px;&quot;&gt;repete 5 vezes&lt;/font&gt;" style="text;html=1;align=center;verticalAlign=middle;whiteSpace=wrap;rounded=0;" vertex="1" parent="1">
          <mxGeometry x="347.5" y="592.5" width="60" height="10" as="geometry" />
        </mxCell>
        <mxCell id="aHgLXVywDQTCK9k4DMpL-89" value="&lt;font style=&quot;font-size: 8px;&quot;&gt;repete 5 vezes&lt;/font&gt;" style="text;html=1;align=center;verticalAlign=middle;whiteSpace=wrap;rounded=0;" vertex="1" parent="1">
          <mxGeometry x="170" y="550" width="60" height="10" as="geometry" />
        </mxCell>
        <mxCell id="aHgLXVywDQTCK9k4DMpL-92" value="&lt;font style=&quot;font-size: 11px;&quot;&gt;(totalPontos[i] == totalPontos [i] and dificeis[i] &amp;lt; dificeis[i])&lt;/font&gt;" style="rhombus;whiteSpace=wrap;html=1;" vertex="1" parent="1">
          <mxGeometry x="540" y="880" width="140" height="100" as="geometry" />
        </mxCell>
        <mxCell id="aHgLXVywDQTCK9k4DMpL-93" value="" style="shape=sumEllipse;perimeter=ellipsePerimeter;whiteSpace=wrap;html=1;backgroundOutline=1;" vertex="1" parent="1">
          <mxGeometry x="510" y="850" width="40" height="30" as="geometry" />
        </mxCell>
        <mxCell id="aHgLXVywDQTCK9k4DMpL-97" value="" style="endArrow=classic;startArrow=classic;html=1;rounded=0;exitX=0;exitY=0.5;exitDx=0;exitDy=0;entryX=0.5;entryY=0;entryDx=0;entryDy=0;" edge="1" parent="1" source="aHgLXVywDQTCK9k4DMpL-69" target="aHgLXVywDQTCK9k4DMpL-93">
          <mxGeometry width="50" height="50" relative="1" as="geometry">
            <mxPoint x="570" y="892.5" as="sourcePoint" />
            <mxPoint x="550" y="872.5" as="targetPoint" />
            <Array as="points">
              <mxPoint x="530" y="807.5" />
            </Array>
          </mxGeometry>
        </mxCell>
        <mxCell id="aHgLXVywDQTCK9k4DMpL-101" value="&lt;font style=&quot;font-size: 11px;&quot;&gt;(totalPontos[i] == totalPontos [i] and dificeis[i] &amp;lt; dificeis[i])&lt;/font&gt;" style="rhombus;whiteSpace=wrap;html=1;" vertex="1" parent="1">
          <mxGeometry x="540" y="1007.5" width="140" height="100" as="geometry" />
        </mxCell>
        <mxCell id="aHgLXVywDQTCK9k4DMpL-102" value="" style="shape=sumEllipse;perimeter=ellipsePerimeter;whiteSpace=wrap;html=1;backgroundOutline=1;" vertex="1" parent="1">
          <mxGeometry x="510" y="967.5" width="40" height="30" as="geometry" />
        </mxCell>
        <mxCell id="aHgLXVywDQTCK9k4DMpL-104" value="" style="endArrow=classic;startArrow=classic;html=1;rounded=0;entryX=0.5;entryY=0;entryDx=0;entryDy=0;exitX=0;exitY=0.5;exitDx=0;exitDy=0;" edge="1" parent="1" source="aHgLXVywDQTCK9k4DMpL-92" target="aHgLXVywDQTCK9k4DMpL-102">
          <mxGeometry width="50" height="50" relative="1" as="geometry">
            <mxPoint x="690" y="842.5" as="sourcePoint" />
            <mxPoint x="710" y="842.5" as="targetPoint" />
            <Array as="points">
              <mxPoint x="530" y="930.5" />
            </Array>
          </mxGeometry>
        </mxCell>
        <mxCell id="aHgLXVywDQTCK9k4DMpL-109" value="&lt;font style=&quot;font-size: 11px;&quot;&gt;(totalPontos[i] ==&amp;nbsp;&lt;/font&gt;&lt;div&gt;&lt;font style=&quot;font-size: 11px;&quot;&gt;totalPontos [i]&amp;nbsp;&lt;/font&gt;&lt;div style=&quot;font-size: 11px;&quot;&gt;&lt;font style=&quot;font-size: 11px;&quot;&gt;and dificeis[i] == dificeis[i]&lt;/font&gt;&lt;/div&gt;&lt;div style=&quot;font-size: 11px;&quot;&gt;&lt;font style=&quot;font-size: 11px;&quot;&gt;and tempo[i] &amp;gt; tempo[i])&lt;/font&gt;&lt;/div&gt;&lt;/div&gt;" style="rhombus;whiteSpace=wrap;html=1;fontSize=11;" vertex="1" parent="1">
          <mxGeometry x="530" y="1147.5" width="150" height="100" as="geometry" />
        </mxCell>
        <mxCell id="aHgLXVywDQTCK9k4DMpL-110" value="" style="shape=sumEllipse;perimeter=ellipsePerimeter;whiteSpace=wrap;html=1;backgroundOutline=1;" vertex="1" parent="1">
          <mxGeometry x="500" y="1102.75" width="40" height="30" as="geometry" />
        </mxCell>
        <mxCell id="aHgLXVywDQTCK9k4DMpL-112" value="" style="endArrow=classic;startArrow=classic;html=1;rounded=0;entryX=0.4;entryY=0;entryDx=0;entryDy=0;exitX=0;exitY=0.5;exitDx=0;exitDy=0;entryPerimeter=0;" edge="1" parent="1" source="aHgLXVywDQTCK9k4DMpL-101" target="aHgLXVywDQTCK9k4DMpL-110">
          <mxGeometry width="50" height="50" relative="1" as="geometry">
            <mxPoint x="521.25" y="1060.5" as="sourcePoint" />
            <mxPoint x="516.25" y="1097.5" as="targetPoint" />
            <Array as="points">
              <mxPoint x="516" y="1057.5" />
            </Array>
          </mxGeometry>
        </mxCell>
        <mxCell id="aHgLXVywDQTCK9k4DMpL-113" value="" style="endArrow=classic;startArrow=classic;html=1;rounded=0;entryX=1.02;entryY=0.555;entryDx=0;entryDy=0;exitX=0.5;exitY=0;exitDx=0;exitDy=0;entryPerimeter=0;" edge="1" parent="1" source="aHgLXVywDQTCK9k4DMpL-109" target="aHgLXVywDQTCK9k4DMpL-110">
          <mxGeometry width="50" height="50" relative="1" as="geometry">
            <mxPoint x="550" y="1067.5" as="sourcePoint" />
            <mxPoint x="536.25" y="1112.5" as="targetPoint" />
            <Array as="points">
              <mxPoint x="605" y="1117.75" />
            </Array>
          </mxGeometry>
        </mxCell>
        <mxCell id="aHgLXVywDQTCK9k4DMpL-114" value="" style="endArrow=classic;startArrow=classic;html=1;rounded=0;entryX=1;entryY=0.5;entryDx=0;entryDy=0;exitX=0.5;exitY=0;exitDx=0;exitDy=0;" edge="1" parent="1" source="aHgLXVywDQTCK9k4DMpL-101" target="aHgLXVywDQTCK9k4DMpL-102">
          <mxGeometry width="50" height="50" relative="1" as="geometry">
            <mxPoint x="610" y="1007.5" as="sourcePoint" />
            <mxPoint x="536.25" y="997.5" as="targetPoint" />
            <Array as="points">
              <mxPoint x="610" y="987.5" />
            </Array>
          </mxGeometry>
        </mxCell>
        <mxCell id="aHgLXVywDQTCK9k4DMpL-115" value="" style="endArrow=classic;startArrow=classic;html=1;rounded=0;entryX=1;entryY=0.5;entryDx=0;entryDy=0;exitX=0.48;exitY=0.019;exitDx=0;exitDy=0;exitPerimeter=0;" edge="1" parent="1" source="aHgLXVywDQTCK9k4DMpL-92" target="aHgLXVywDQTCK9k4DMpL-93">
          <mxGeometry width="50" height="50" relative="1" as="geometry">
            <mxPoint x="610" y="880" as="sourcePoint" />
            <mxPoint x="550" y="855" as="targetPoint" />
            <Array as="points">
              <mxPoint x="610" y="867.5" />
            </Array>
          </mxGeometry>
        </mxCell>
        <mxCell id="aHgLXVywDQTCK9k4DMpL-116" value="" style="endArrow=classic;html=1;rounded=0;exitX=0;exitY=0.5;exitDx=0;exitDy=0;entryX=0;entryY=0.5;entryDx=0;entryDy=0;" edge="1" parent="1" source="aHgLXVywDQTCK9k4DMpL-109" target="aHgLXVywDQTCK9k4DMpL-117">
          <mxGeometry width="50" height="50" relative="1" as="geometry">
            <mxPoint x="620" y="1297.5" as="sourcePoint" />
            <mxPoint x="539.3399999999999" y="1317.58" as="targetPoint" />
            <Array as="points">
              <mxPoint x="520" y="1197.5" />
              <mxPoint x="520" y="1327.75" />
            </Array>
          </mxGeometry>
        </mxCell>
        <mxCell id="aHgLXVywDQTCK9k4DMpL-117" value="grupo[i]&lt;div&gt;tempo[i]&lt;/div&gt;&lt;div&gt;faceis[i]&lt;/div&gt;&lt;div&gt;medias[i]&lt;/div&gt;&lt;div&gt;dificeis[i]&lt;/div&gt;" style="whiteSpace=wrap;html=1;aspect=fixed;fontSize=11;" vertex="1" parent="1">
          <mxGeometry x="531.25" y="1287.5" width="80" height="80" as="geometry" />
        </mxCell>
        <mxCell id="aHgLXVywDQTCK9k4DMpL-118" value="grupo[i]&lt;div&gt;tempo[i]&lt;/div&gt;&lt;div&gt;faceis[i]&lt;/div&gt;&lt;div&gt;medias[i]&lt;/div&gt;&lt;div&gt;dificeis[i]&lt;/div&gt;" style="whiteSpace=wrap;html=1;aspect=fixed;fontSize=11;" vertex="1" parent="1">
          <mxGeometry x="641.25" y="1287.5" width="80" height="80" as="geometry" />
        </mxCell>
        <mxCell id="aHgLXVywDQTCK9k4DMpL-124" value="" style="endArrow=classic;html=1;rounded=0;exitX=0;exitY=0.5;exitDx=0;exitDy=0;" edge="1" parent="1" source="aHgLXVywDQTCK9k4DMpL-60" target="aHgLXVywDQTCK9k4DMpL-67">
          <mxGeometry width="50" height="50" relative="1" as="geometry">
            <mxPoint x="430" y="740" as="sourcePoint" />
            <mxPoint x="480" y="690" as="targetPoint" />
            <Array as="points">
              <mxPoint x="520" y="640" />
              <mxPoint x="520" y="660" />
              <mxPoint x="610" y="660" />
            </Array>
          </mxGeometry>
        </mxCell>
        <mxCell id="aHgLXVywDQTCK9k4DMpL-126" value="verdadeiro" style="text;html=1;align=center;verticalAlign=middle;whiteSpace=wrap;rounded=0;" vertex="1" parent="1">
          <mxGeometry x="550" y="610" width="47.5" height="20" as="geometry" />
        </mxCell>
        <mxCell id="aHgLXVywDQTCK9k4DMpL-127" value="Falso" style="text;html=1;align=center;verticalAlign=middle;whiteSpace=wrap;rounded=0;" vertex="1" parent="1">
          <mxGeometry x="700" y="612.5" width="50" height="25" as="geometry" />
        </mxCell>
        <mxCell id="aHgLXVywDQTCK9k4DMpL-130" value="" style="shape=flexArrow;endArrow=classic;html=1;rounded=0;exitX=0.991;exitY=0.309;exitDx=0;exitDy=0;exitPerimeter=0;entryX=0.004;entryY=0.291;entryDx=0;entryDy=0;entryPerimeter=0;" edge="1" parent="1" source="aHgLXVywDQTCK9k4DMpL-117" target="aHgLXVywDQTCK9k4DMpL-118">
          <mxGeometry width="50" height="50" relative="1" as="geometry">
            <mxPoint x="611.25" y="1303.75" as="sourcePoint" />
            <mxPoint x="641.25" y="1303.75" as="targetPoint" />
          </mxGeometry>
        </mxCell>
        <mxCell id="aHgLXVywDQTCK9k4DMpL-133" value="" style="shape=flexArrow;endArrow=classic;html=1;rounded=0;endWidth=20;endSize=6.223333333333334;entryX=1.004;entryY=0.699;entryDx=0;entryDy=0;entryPerimeter=0;exitX=-0.008;exitY=0.699;exitDx=0;exitDy=0;exitPerimeter=0;" edge="1" parent="1" source="aHgLXVywDQTCK9k4DMpL-118" target="aHgLXVywDQTCK9k4DMpL-117">
          <mxGeometry width="50" height="50" relative="1" as="geometry">
            <mxPoint x="631.25" y="1343.75" as="sourcePoint" />
            <mxPoint x="603.13" y="1343.75" as="targetPoint" />
          </mxGeometry>
        </mxCell>
        <mxCell id="aHgLXVywDQTCK9k4DMpL-134" value="grupoDificeis = grupo[i]&lt;div&gt;maiorDificeis = dificeis[i]&lt;/div&gt;" style="rounded=0;whiteSpace=wrap;html=1;" vertex="1" parent="1">
          <mxGeometry x="550" y="1390" width="120" height="60" as="geometry" />
        </mxCell>
        <mxCell id="aHgLXVywDQTCK9k4DMpL-137" value="dificeis[i] &amp;gt;&lt;div&gt;maiorDificeis&lt;/div&gt;" style="rhombus;whiteSpace=wrap;html=1;" vertex="1" parent="1">
          <mxGeometry x="590" y="1550" width="80" height="80" as="geometry" />
        </mxCell>
        <mxCell id="aHgLXVywDQTCK9k4DMpL-139" value="" style="endArrow=classic;html=1;rounded=0;exitX=0;exitY=0.5;exitDx=0;exitDy=0;entryX=0.5;entryY=0;entryDx=0;entryDy=0;" edge="1" parent="1" source="aHgLXVywDQTCK9k4DMpL-137" target="aHgLXVywDQTCK9k4DMpL-141">
          <mxGeometry width="50" height="50" relative="1" as="geometry">
            <mxPoint x="561.88" y="1589.83" as="sourcePoint" />
            <mxPoint x="561.88" y="1660" as="targetPoint" />
            <Array as="points">
              <mxPoint x="551.63" y="1590" />
            </Array>
          </mxGeometry>
        </mxCell>
        <mxCell id="aHgLXVywDQTCK9k4DMpL-140" value="verdadeiro" style="text;html=1;align=center;verticalAlign=middle;whiteSpace=wrap;rounded=0;" vertex="1" parent="1">
          <mxGeometry x="542.5" y="1570" width="47.5" height="20" as="geometry" />
        </mxCell>
        <mxCell id="aHgLXVywDQTCK9k4DMpL-141" value="grupoDificeis =&amp;nbsp;&lt;div&gt;grupo[i]&lt;/div&gt;&lt;div&gt;maiorDificeis =&amp;nbsp;&lt;/div&gt;&lt;div&gt;dificeis[i]&lt;/div&gt;" style="rounded=0;whiteSpace=wrap;html=1;" vertex="1" parent="1">
          <mxGeometry x="489.38" y="1700" width="120" height="60" as="geometry" />
        </mxCell>
        <mxCell id="aHgLXVywDQTCK9k4DMpL-145" value="Falso" style="text;html=1;align=center;verticalAlign=middle;whiteSpace=wrap;rounded=0;" vertex="1" parent="1">
          <mxGeometry x="970" y="710" width="47.5" height="20" as="geometry" />
        </mxCell>
        <mxCell id="aHgLXVywDQTCK9k4DMpL-146" value="" style="endArrow=classic;html=1;rounded=0;entryX=1;entryY=0.75;entryDx=0;entryDy=0;exitX=0.997;exitY=0.701;exitDx=0;exitDy=0;exitPerimeter=0;" edge="1" parent="1" source="aHgLXVywDQTCK9k4DMpL-118">
          <mxGeometry width="50" height="50" relative="1" as="geometry">
            <mxPoint x="770" y="1323.75" as="sourcePoint" />
            <mxPoint x="660" y="730" as="targetPoint" />
            <Array as="points">
              <mxPoint x="730" y="1343.75" />
              <mxPoint x="730" y="729.75" />
            </Array>
          </mxGeometry>
        </mxCell>
        <mxCell id="aHgLXVywDQTCK9k4DMpL-148" value="" style="endArrow=classic;html=1;rounded=0;exitX=1;exitY=0.5;exitDx=0;exitDy=0;entryX=0.99;entryY=0.66;entryDx=0;entryDy=0;entryPerimeter=0;" edge="1" parent="1" source="aHgLXVywDQTCK9k4DMpL-137" target="aHgLXVywDQTCK9k4DMpL-150">
          <mxGeometry width="50" height="50" relative="1" as="geometry">
            <mxPoint x="521.88" y="1637.5" as="sourcePoint" />
            <mxPoint x="741.88" y="1477.5" as="targetPoint" />
            <Array as="points">
              <mxPoint x="720.63" y="1590" />
              <mxPoint x="720" y="1500" />
            </Array>
          </mxGeometry>
        </mxCell>
        <mxCell id="aHgLXVywDQTCK9k4DMpL-149" value="" style="endArrow=classic;html=1;rounded=0;exitX=0;exitY=0.5;exitDx=0;exitDy=0;entryX=0;entryY=0.5;entryDx=0;entryDy=0;" edge="1" parent="1" source="aHgLXVywDQTCK9k4DMpL-60" target="aHgLXVywDQTCK9k4DMpL-134">
          <mxGeometry width="50" height="50" relative="1" as="geometry">
            <mxPoint x="300" y="870" as="sourcePoint" />
            <mxPoint x="450" y="1460" as="targetPoint" />
            <Array as="points">
              <mxPoint x="520" y="640" />
              <mxPoint x="480" y="640" />
              <mxPoint x="480" y="1420" />
            </Array>
          </mxGeometry>
        </mxCell>
        <mxCell id="aHgLXVywDQTCK9k4DMpL-150" value="i = 1 até 4" style="shape=loopLimit;whiteSpace=wrap;html=1;" vertex="1" parent="1">
          <mxGeometry x="561.25" y="1470" width="100" height="50" as="geometry" />
        </mxCell>
        <mxCell id="aHgLXVywDQTCK9k4DMpL-151" value="" style="endArrow=classic;html=1;rounded=0;exitX=0.5;exitY=1;exitDx=0;exitDy=0;entryX=0.5;entryY=0;entryDx=0;entryDy=0;" edge="1" parent="1" source="aHgLXVywDQTCK9k4DMpL-134" target="aHgLXVywDQTCK9k4DMpL-150">
          <mxGeometry width="50" height="50" relative="1" as="geometry">
            <mxPoint x="590" y="1570" as="sourcePoint" />
            <mxPoint x="640" y="1520" as="targetPoint" />
          </mxGeometry>
        </mxCell>
        <mxCell id="aHgLXVywDQTCK9k4DMpL-152" value="" style="endArrow=classic;html=1;rounded=0;entryX=0.5;entryY=0;entryDx=0;entryDy=0;exitX=-0.003;exitY=0.587;exitDx=0;exitDy=0;exitPerimeter=0;" edge="1" parent="1" source="aHgLXVywDQTCK9k4DMpL-150" target="aHgLXVywDQTCK9k4DMpL-137">
          <mxGeometry width="50" height="50" relative="1" as="geometry">
            <mxPoint x="550" y="1490" as="sourcePoint" />
            <mxPoint x="640" y="1520" as="targetPoint" />
            <Array as="points">
              <mxPoint x="540" y="1500" />
              <mxPoint x="540" y="1530" />
              <mxPoint x="630" y="1530" />
            </Array>
          </mxGeometry>
        </mxCell>
        <mxCell id="aHgLXVywDQTCK9k4DMpL-153" value="" style="endArrow=classic;html=1;rounded=0;exitX=1;exitY=0.5;exitDx=0;exitDy=0;entryX=1.001;entryY=0.453;entryDx=0;entryDy=0;entryPerimeter=0;" edge="1" parent="1" source="aHgLXVywDQTCK9k4DMpL-141" target="aHgLXVywDQTCK9k4DMpL-150">
          <mxGeometry width="50" height="50" relative="1" as="geometry">
            <mxPoint x="730" y="1660" as="sourcePoint" />
            <mxPoint x="780" y="1610" as="targetPoint" />
            <Array as="points">
              <mxPoint x="730" y="1730" />
              <mxPoint x="730" y="1490" />
              <mxPoint x="720" y="1490" />
            </Array>
          </mxGeometry>
        </mxCell>
        <mxCell id="aHgLXVywDQTCK9k4DMpL-154" value="Falso" style="text;html=1;align=center;verticalAlign=middle;whiteSpace=wrap;rounded=0;" vertex="1" parent="1">
          <mxGeometry x="673.75" y="1570" width="47.5" height="20" as="geometry" />
        </mxCell>
        <mxCell id="aHgLXVywDQTCK9k4DMpL-157" value="" style="endArrow=classic;html=1;rounded=0;exitX=0;exitY=0.5;exitDx=0;exitDy=0;entryX=0;entryY=0.5;entryDx=0;entryDy=0;" edge="1" parent="1" source="aHgLXVywDQTCK9k4DMpL-60" target="aHgLXVywDQTCK9k4DMpL-158">
          <mxGeometry width="50" height="50" relative="1" as="geometry">
            <mxPoint x="610" y="653" as="sourcePoint" />
            <mxPoint x="470" y="1830" as="targetPoint" />
            <Array as="points">
              <mxPoint x="480" y="640" />
              <mxPoint x="480" y="1430" />
              <mxPoint x="480" y="1840" />
            </Array>
          </mxGeometry>
        </mxCell>
        <mxCell id="aHgLXVywDQTCK9k4DMpL-158" value="media[i]=&lt;div&gt;(faceis[i] + medias[i] +&lt;/div&gt;&lt;div&gt;dificeis[i])/3&lt;/div&gt;" style="rounded=0;whiteSpace=wrap;html=1;" vertex="1" parent="1">
          <mxGeometry x="500" y="1810" width="120" height="60" as="geometry" />
        </mxCell>
        <mxCell id="aHgLXVywDQTCK9k4DMpL-159" value="&lt;font style=&quot;font-size: 10px;&quot;&gt;mediaTotal =&amp;nbsp;&lt;/font&gt;&lt;div&gt;&lt;font style=&quot;font-size: 10px;&quot;&gt;&lt;span style=&quot;background-color: initial;&quot;&gt;(totalPontos[i] + totalPontos[i]&lt;/span&gt;&lt;span style=&quot;background-color: initial;&quot;&gt;&amp;nbsp;&lt;/span&gt;&lt;/font&gt;&lt;/div&gt;&lt;div&gt;&lt;font style=&quot;font-size: 10px;&quot;&gt;&lt;span style=&quot;background-color: initial;&quot;&gt;+&amp;nbsp;&lt;/span&gt;totalPontos[i] +&lt;/font&gt;&lt;/div&gt;&lt;div&gt;&lt;font style=&quot;font-size: 10px;&quot;&gt;&amp;nbsp;&lt;/font&gt;&lt;span style=&quot;font-size: 10px; background-color: initial;&quot;&gt;totalPontos[i]+&amp;nbsp;&lt;/span&gt;&lt;span style=&quot;font-size: 10px; background-color: initial;&quot;&gt;totalPontos[i]&lt;/span&gt;&lt;span style=&quot;font-size: 10px; background-color: initial;&quot;&gt;)/5&lt;/span&gt;&lt;/div&gt;" style="rounded=0;whiteSpace=wrap;html=1;fontSize=11;" vertex="1" parent="1">
          <mxGeometry x="495" y="1900" width="140" height="60" as="geometry" />
        </mxCell>
        <mxCell id="aHgLXVywDQTCK9k4DMpL-160" value="&lt;font style=&quot;font-size: 8px;&quot;&gt;repete 5 vezes&lt;/font&gt;" style="text;html=1;align=center;verticalAlign=middle;whiteSpace=wrap;rounded=0;" vertex="1" parent="1">
          <mxGeometry x="500" y="1870" width="60" height="10" as="geometry" />
        </mxCell>
        <mxCell id="aHgLXVywDQTCK9k4DMpL-162" value="" style="endArrow=classic;html=1;rounded=0;exitX=0;exitY=0.5;exitDx=0;exitDy=0;entryX=0;entryY=0.5;entryDx=0;entryDy=0;" edge="1" parent="1" source="aHgLXVywDQTCK9k4DMpL-60" target="aHgLXVywDQTCK9k4DMpL-159">
          <mxGeometry width="50" height="50" relative="1" as="geometry">
            <mxPoint x="620" y="663" as="sourcePoint" />
            <mxPoint x="510" y="1850" as="targetPoint" />
            <Array as="points">
              <mxPoint x="480" y="640" />
              <mxPoint x="480" y="1440" />
              <mxPoint x="480" y="1690" />
              <mxPoint x="480" y="1930" />
            </Array>
          </mxGeometry>
        </mxCell>
        <mxCell id="aHgLXVywDQTCK9k4DMpL-163" value="&lt;font style=&quot;font-size: 8px;&quot;&gt;media geral&lt;/font&gt;" style="text;html=1;align=center;verticalAlign=middle;whiteSpace=wrap;rounded=0;" vertex="1" parent="1">
          <mxGeometry x="561.25" y="1890" width="60" height="10" as="geometry" />
        </mxCell>
        <mxCell id="aHgLXVywDQTCK9k4DMpL-164" value="&lt;font style=&quot;font-size: 8px;&quot;&gt;media de cada equipe&lt;/font&gt;" style="text;html=1;align=center;verticalAlign=middle;whiteSpace=wrap;rounded=0;" vertex="1" parent="1">
          <mxGeometry x="500" y="1800" width="90" height="10" as="geometry" />
        </mxCell>
        <mxCell id="aHgLXVywDQTCK9k4DMpL-166" value="" style="endArrow=classic;html=1;rounded=0;exitX=0;exitY=0.5;exitDx=0;exitDy=0;entryX=0;entryY=0.5;entryDx=0;entryDy=0;entryPerimeter=0;" edge="1" parent="1" source="aHgLXVywDQTCK9k4DMpL-60" target="aHgLXVywDQTCK9k4DMpL-170">
          <mxGeometry width="50" height="50" relative="1" as="geometry">
            <mxPoint x="600" y="673" as="sourcePoint" />
            <mxPoint x="500" y="2040" as="targetPoint" />
            <Array as="points">
              <mxPoint x="530" y="640" />
              <mxPoint x="480" y="640" />
              <mxPoint x="480" y="1470" />
              <mxPoint x="480" y="1720" />
              <mxPoint x="480" y="1990" />
            </Array>
          </mxGeometry>
        </mxCell>
        <mxCell id="aHgLXVywDQTCK9k4DMpL-172" value="" style="edgeStyle=orthogonalEdgeStyle;rounded=0;orthogonalLoop=1;jettySize=auto;html=1;" edge="1" parent="1" source="aHgLXVywDQTCK9k4DMpL-170" target="aHgLXVywDQTCK9k4DMpL-171">
          <mxGeometry relative="1" as="geometry" />
        </mxCell>
        <mxCell id="aHgLXVywDQTCK9k4DMpL-170" value="Ranking Geral" style="shape=display;whiteSpace=wrap;html=1;" vertex="1" parent="1">
          <mxGeometry x="499.38" y="1970" width="100" height="40" as="geometry" />
        </mxCell>
        <mxCell id="aHgLXVywDQTCK9k4DMpL-174" value="" style="edgeStyle=orthogonalEdgeStyle;rounded=0;orthogonalLoop=1;jettySize=auto;html=1;exitX=1;exitY=0.5;exitDx=0;exitDy=0;exitPerimeter=0;" edge="1" parent="1" source="aHgLXVywDQTCK9k4DMpL-171" target="aHgLXVywDQTCK9k4DMpL-173">
          <mxGeometry relative="1" as="geometry">
            <mxPoint x="690" y="2040" as="sourcePoint" />
            <Array as="points">
              <mxPoint x="620" y="2040" />
              <mxPoint x="620" y="2090" />
              <mxPoint x="545" y="2090" />
            </Array>
          </mxGeometry>
        </mxCell>
        <mxCell id="aHgLXVywDQTCK9k4DMpL-171" value="Colocação[i]:&lt;div&gt;Grupo[i]&lt;/div&gt;" style="shape=display;whiteSpace=wrap;html=1;" vertex="1" parent="1">
          <mxGeometry x="500" y="2020" width="100" height="40" as="geometry" />
        </mxCell>
        <mxCell id="aHgLXVywDQTCK9k4DMpL-181" value="" style="edgeStyle=orthogonalEdgeStyle;rounded=0;orthogonalLoop=1;jettySize=auto;html=1;" edge="1" parent="1" source="aHgLXVywDQTCK9k4DMpL-173" target="aHgLXVywDQTCK9k4DMpL-177">
          <mxGeometry relative="1" as="geometry" />
        </mxCell>
        <mxCell id="aHgLXVywDQTCK9k4DMpL-173" value="pontos:&lt;div&gt;totalPontos[i]&lt;/div&gt;" style="shape=display;whiteSpace=wrap;html=1;" vertex="1" parent="1">
          <mxGeometry x="495" y="2070" width="100" height="40" as="geometry" />
        </mxCell>
        <mxCell id="aHgLXVywDQTCK9k4DMpL-177" value="Tempo:&lt;div&gt;tempo[i]&lt;/div&gt;" style="shape=display;whiteSpace=wrap;html=1;" vertex="1" parent="1">
          <mxGeometry x="495" y="2130" width="100" height="40" as="geometry" />
        </mxCell>
        <mxCell id="aHgLXVywDQTCK9k4DMpL-184" value="" style="edgeStyle=orthogonalEdgeStyle;rounded=0;orthogonalLoop=1;jettySize=auto;html=1;" edge="1" parent="1" source="aHgLXVywDQTCK9k4DMpL-178" target="aHgLXVywDQTCK9k4DMpL-183">
          <mxGeometry relative="1" as="geometry" />
        </mxCell>
        <mxCell id="aHgLXVywDQTCK9k4DMpL-178" value="Equipe com mais reposta difíceis" style="shape=display;whiteSpace=wrap;html=1;" vertex="1" parent="1">
          <mxGeometry x="487.5" y="2200" width="100" height="40" as="geometry" />
        </mxCell>
        <mxCell id="aHgLXVywDQTCK9k4DMpL-182" style="edgeStyle=orthogonalEdgeStyle;rounded=0;orthogonalLoop=1;jettySize=auto;html=1;entryX=0.587;entryY=-0.042;entryDx=0;entryDy=0;entryPerimeter=0;" edge="1" parent="1" source="aHgLXVywDQTCK9k4DMpL-177" target="aHgLXVywDQTCK9k4DMpL-178">
          <mxGeometry relative="1" as="geometry">
            <Array as="points">
              <mxPoint x="545" y="2190" />
              <mxPoint x="546" y="2190" />
            </Array>
          </mxGeometry>
        </mxCell>
        <mxCell id="aHgLXVywDQTCK9k4DMpL-186" value="" style="edgeStyle=orthogonalEdgeStyle;rounded=0;orthogonalLoop=1;jettySize=auto;html=1;" edge="1" parent="1" source="aHgLXVywDQTCK9k4DMpL-183" target="aHgLXVywDQTCK9k4DMpL-185">
          <mxGeometry relative="1" as="geometry" />
        </mxCell>
        <mxCell id="aHgLXVywDQTCK9k4DMpL-183" value="grupoDificeis&lt;div&gt;com: maiorDificeis&lt;/div&gt;" style="shape=display;whiteSpace=wrap;html=1;" vertex="1" parent="1">
          <mxGeometry x="487.5" y="2260" width="100" height="40" as="geometry" />
        </mxCell>
        <mxCell id="aHgLXVywDQTCK9k4DMpL-185" value="a media geral é:&lt;div&gt;mediaTotal&lt;/div&gt;" style="shape=display;whiteSpace=wrap;html=1;" vertex="1" parent="1">
          <mxGeometry x="620" y="2260" width="100" height="40" as="geometry" />
        </mxCell>
        <mxCell id="aHgLXVywDQTCK9k4DMpL-187" value="menu == 5" style="rhombus;whiteSpace=wrap;html=1;" vertex="1" parent="1">
          <mxGeometry x="887.5" y="700" width="100" height="80" as="geometry" />
        </mxCell>
        <mxCell id="aHgLXVywDQTCK9k4DMpL-188" value="" style="endArrow=classic;html=1;rounded=0;exitX=1;exitY=0.5;exitDx=0;exitDy=0;entryX=0.5;entryY=0;entryDx=0;entryDy=0;" edge="1" parent="1" source="aHgLXVywDQTCK9k4DMpL-60" target="aHgLXVywDQTCK9k4DMpL-187">
          <mxGeometry width="50" height="50" relative="1" as="geometry">
            <mxPoint x="810" y="660" as="sourcePoint" />
            <mxPoint x="860" y="610" as="targetPoint" />
            <Array as="points">
              <mxPoint x="940" y="640" />
            </Array>
          </mxGeometry>
        </mxCell>
        <mxCell id="aHgLXVywDQTCK9k4DMpL-189" value="" style="edgeStyle=orthogonalEdgeStyle;rounded=0;orthogonalLoop=1;jettySize=auto;html=1;" edge="1" parent="1" source="aHgLXVywDQTCK9k4DMpL-190" target="aHgLXVywDQTCK9k4DMpL-192">
          <mxGeometry relative="1" as="geometry" />
        </mxCell>
        <mxCell id="aHgLXVywDQTCK9k4DMpL-190" value="Detalhamento das&lt;div&gt;Equipes&lt;/div&gt;" style="shape=display;whiteSpace=wrap;html=1;" vertex="1" parent="1">
          <mxGeometry x="792.5" y="812.5" width="100" height="40" as="geometry" />
        </mxCell>
        <mxCell id="aHgLXVywDQTCK9k4DMpL-192" value="Equipe:&lt;div&gt;Grupo[i]&lt;/div&gt;" style="shape=display;whiteSpace=wrap;html=1;" vertex="1" parent="1">
          <mxGeometry x="792.5" y="870" width="100" height="40" as="geometry" />
        </mxCell>
        <mxCell id="aHgLXVywDQTCK9k4DMpL-193" value="" style="edgeStyle=orthogonalEdgeStyle;rounded=0;orthogonalLoop=1;jettySize=auto;html=1;" edge="1" parent="1" source="aHgLXVywDQTCK9k4DMpL-194" target="aHgLXVywDQTCK9k4DMpL-195">
          <mxGeometry relative="1" as="geometry" />
        </mxCell>
        <mxCell id="aHgLXVywDQTCK9k4DMpL-194" value="pontos:&lt;div&gt;totalPontos[i]&lt;/div&gt;" style="shape=display;whiteSpace=wrap;html=1;" vertex="1" parent="1">
          <mxGeometry x="791.88" y="930" width="100" height="40" as="geometry" />
        </mxCell>
        <mxCell id="aHgLXVywDQTCK9k4DMpL-195" value="Fáceis:&lt;div&gt;faceis[i]&lt;/div&gt;" style="shape=display;whiteSpace=wrap;html=1;" vertex="1" parent="1">
          <mxGeometry x="791.88" y="997.5" width="100" height="40" as="geometry" />
        </mxCell>
        <mxCell id="aHgLXVywDQTCK9k4DMpL-201" value="Media Acerto:&lt;div&gt;media[i]&lt;/div&gt;" style="shape=display;whiteSpace=wrap;html=1;" vertex="1" parent="1">
          <mxGeometry x="791.88" y="1177.5" width="100" height="40" as="geometry" />
        </mxCell>
        <mxCell id="aHgLXVywDQTCK9k4DMpL-202" value="" style="endArrow=classic;html=1;rounded=0;exitX=0;exitY=0.5;exitDx=0;exitDy=0;entryX=0.485;entryY=0.002;entryDx=0;entryDy=0;entryPerimeter=0;" edge="1" parent="1" source="aHgLXVywDQTCK9k4DMpL-187" target="aHgLXVywDQTCK9k4DMpL-190">
          <mxGeometry width="50" height="50" relative="1" as="geometry">
            <mxPoint x="820" y="800" as="sourcePoint" />
            <mxPoint x="870" y="750" as="targetPoint" />
            <Array as="points">
              <mxPoint x="840" y="740" />
            </Array>
          </mxGeometry>
        </mxCell>
        <mxCell id="aHgLXVywDQTCK9k4DMpL-204" value="verdadeiro" style="text;html=1;align=center;verticalAlign=middle;whiteSpace=wrap;rounded=0;" vertex="1" parent="1">
          <mxGeometry x="845" y="710" width="47.5" height="20" as="geometry" />
        </mxCell>
        <mxCell id="aHgLXVywDQTCK9k4DMpL-205" value="" style="endArrow=classic;html=1;rounded=0;exitX=0;exitY=0;exitDx=52.5;exitDy=40;exitPerimeter=0;entryX=0;entryY=0;entryDx=52.5;entryDy=0;entryPerimeter=0;" edge="1" parent="1" source="aHgLXVywDQTCK9k4DMpL-192" target="aHgLXVywDQTCK9k4DMpL-194">
          <mxGeometry width="50" height="50" relative="1" as="geometry">
            <mxPoint x="820" y="1000" as="sourcePoint" />
            <mxPoint x="870" y="950" as="targetPoint" />
          </mxGeometry>
        </mxCell>
        <mxCell id="aHgLXVywDQTCK9k4DMpL-206" value="Médias:&lt;div&gt;medias[i]&lt;/div&gt;" style="shape=display;whiteSpace=wrap;html=1;" vertex="1" parent="1">
          <mxGeometry x="792.5" y="1060" width="100" height="40" as="geometry" />
        </mxCell>
        <mxCell id="aHgLXVywDQTCK9k4DMpL-207" value="Difíceis:&lt;div&gt;dificeis[i]&lt;/div&gt;" style="shape=display;whiteSpace=wrap;html=1;" vertex="1" parent="1">
          <mxGeometry x="791.88" y="1120" width="100" height="40" as="geometry" />
        </mxCell>
        <mxCell id="aHgLXVywDQTCK9k4DMpL-208" value="" style="endArrow=classic;html=1;rounded=0;exitX=0;exitY=0;exitDx=52.5;exitDy=40;exitPerimeter=0;entryX=0;entryY=0;entryDx=52.5;entryDy=0;entryPerimeter=0;" edge="1" parent="1" source="aHgLXVywDQTCK9k4DMpL-195" target="aHgLXVywDQTCK9k4DMpL-206">
          <mxGeometry width="50" height="50" relative="1" as="geometry">
            <mxPoint x="820" y="1150" as="sourcePoint" />
            <mxPoint x="870" y="1100" as="targetPoint" />
          </mxGeometry>
        </mxCell>
        <mxCell id="aHgLXVywDQTCK9k4DMpL-209" value="" style="endArrow=classic;html=1;rounded=0;exitX=0;exitY=0;exitDx=52.5;exitDy=40;exitPerimeter=0;entryX=0;entryY=0;entryDx=52.5;entryDy=0;entryPerimeter=0;" edge="1" parent="1" source="aHgLXVywDQTCK9k4DMpL-206" target="aHgLXVywDQTCK9k4DMpL-207">
          <mxGeometry width="50" height="50" relative="1" as="geometry">
            <mxPoint x="854" y="1048" as="sourcePoint" />
            <mxPoint x="855" y="1070" as="targetPoint" />
            <Array as="points" />
          </mxGeometry>
        </mxCell>
        <mxCell id="aHgLXVywDQTCK9k4DMpL-210" value="" style="endArrow=classic;html=1;rounded=0;exitX=0;exitY=0;exitDx=52.5;exitDy=40;exitPerimeter=0;entryX=0;entryY=0;entryDx=52.5;entryDy=0;entryPerimeter=0;" edge="1" parent="1" source="aHgLXVywDQTCK9k4DMpL-207" target="aHgLXVywDQTCK9k4DMpL-201">
          <mxGeometry width="50" height="50" relative="1" as="geometry">
            <mxPoint x="810" y="1200" as="sourcePoint" />
            <mxPoint x="860" y="1150" as="targetPoint" />
          </mxGeometry>
        </mxCell>
        <mxCell id="aHgLXVywDQTCK9k4DMpL-211" value="Tempo Prova:&lt;div&gt;tempo[i]&lt;/div&gt;" style="shape=display;whiteSpace=wrap;html=1;" vertex="1" parent="1">
          <mxGeometry x="791.88" y="1235" width="100" height="40" as="geometry" />
        </mxCell>
        <mxCell id="aHgLXVywDQTCK9k4DMpL-212" value="" style="endArrow=classic;html=1;rounded=0;exitX=0;exitY=0;exitDx=52.5;exitDy=40;exitPerimeter=0;entryX=0;entryY=0;entryDx=52.5;entryDy=0;entryPerimeter=0;" edge="1" parent="1" target="aHgLXVywDQTCK9k4DMpL-211">
          <mxGeometry width="50" height="50" relative="1" as="geometry">
            <mxPoint x="844" y="1217.5" as="sourcePoint" />
            <mxPoint x="860" y="1207.5" as="targetPoint" />
          </mxGeometry>
        </mxCell>
        <mxCell id="aHgLXVywDQTCK9k4DMpL-213" value="&lt;font style=&quot;font-size: 8px;&quot;&gt;repete 5 vezes&lt;/font&gt;" style="text;html=1;align=center;verticalAlign=middle;whiteSpace=wrap;rounded=0;" vertex="1" parent="1">
          <mxGeometry x="845" y="797.5" width="60" height="10" as="geometry" />
        </mxCell>
        <mxCell id="aHgLXVywDQTCK9k4DMpL-220" style="edgeStyle=orthogonalEdgeStyle;rounded=0;orthogonalLoop=1;jettySize=auto;html=1;exitX=1;exitY=0.5;exitDx=0;exitDy=0;entryX=0.574;entryY=0.007;entryDx=0;entryDy=0;entryPerimeter=0;" edge="1" parent="1" source="aHgLXVywDQTCK9k4DMpL-214" target="aHgLXVywDQTCK9k4DMpL-218">
          <mxGeometry relative="1" as="geometry" />
        </mxCell>
        <mxCell id="aHgLXVywDQTCK9k4DMpL-214" value="menu == 6" style="rhombus;whiteSpace=wrap;html=1;" vertex="1" parent="1">
          <mxGeometry x="1060" y="777.5" width="100" height="80" as="geometry" />
        </mxCell>
        <mxCell id="aHgLXVywDQTCK9k4DMpL-215" value="" style="endArrow=classic;html=1;rounded=0;entryX=0.5;entryY=0;entryDx=0;entryDy=0;" edge="1" parent="1" target="aHgLXVywDQTCK9k4DMpL-214">
          <mxGeometry width="50" height="50" relative="1" as="geometry">
            <mxPoint x="990" y="740" as="sourcePoint" />
            <mxPoint x="1120" y="760" as="targetPoint" />
            <Array as="points">
              <mxPoint x="1070" y="740" />
              <mxPoint x="1090" y="760" />
              <mxPoint x="1100" y="770" />
            </Array>
          </mxGeometry>
        </mxCell>
        <mxCell id="aHgLXVywDQTCK9k4DMpL-216" value="" style="endArrow=classic;html=1;rounded=0;exitX=0;exitY=0.5;exitDx=0;exitDy=0;entryX=0;entryY=0.5;entryDx=0;entryDy=0;entryPerimeter=0;" edge="1" parent="1" source="aHgLXVywDQTCK9k4DMpL-214" target="aHgLXVywDQTCK9k4DMpL-217">
          <mxGeometry width="50" height="50" relative="1" as="geometry">
            <mxPoint x="1040" y="812.5" as="sourcePoint" />
            <mxPoint x="1040" y="935" as="targetPoint" />
            <Array as="points">
              <mxPoint x="1030" y="818" />
              <mxPoint x="1030" y="880" />
              <mxPoint x="1030" y="920" />
            </Array>
          </mxGeometry>
        </mxCell>
        <mxCell id="aHgLXVywDQTCK9k4DMpL-217" value="Competição encerrada!" style="shape=display;whiteSpace=wrap;html=1;" vertex="1" parent="1">
          <mxGeometry x="1080" y="900" width="100" height="40" as="geometry" />
        </mxCell>
        <mxCell id="aHgLXVywDQTCK9k4DMpL-218" value="Fim" style="ellipse;whiteSpace=wrap;html=1;" vertex="1" parent="1">
          <mxGeometry x="1330" y="1215" width="180" height="80" as="geometry" />
        </mxCell>
        <mxCell id="aHgLXVywDQTCK9k4DMpL-219" style="edgeStyle=orthogonalEdgeStyle;rounded=0;orthogonalLoop=1;jettySize=auto;html=1;entryX=0.426;entryY=-0.004;entryDx=0;entryDy=0;entryPerimeter=0;" edge="1" parent="1" source="aHgLXVywDQTCK9k4DMpL-217" target="aHgLXVywDQTCK9k4DMpL-218">
          <mxGeometry relative="1" as="geometry" />
        </mxCell>
        <mxCell id="aHgLXVywDQTCK9k4DMpL-222" value="Falso" style="text;html=1;align=center;verticalAlign=middle;whiteSpace=wrap;rounded=0;" vertex="1" parent="1">
          <mxGeometry x="1160" y="797.5" width="47.5" height="20" as="geometry" />
        </mxCell>
        <mxCell id="aHgLXVywDQTCK9k4DMpL-223" value="verdadeiro" style="text;html=1;align=center;verticalAlign=middle;whiteSpace=wrap;rounded=0;" vertex="1" parent="1">
          <mxGeometry x="1017.5" y="792.5" width="47.5" height="20" as="geometry" />
        </mxCell>
        <mxCell id="aHgLXVywDQTCK9k4DMpL-224" value="Falso" style="text;html=1;align=center;verticalAlign=middle;whiteSpace=wrap;rounded=0;" vertex="1" parent="1">
          <mxGeometry x="390" y="140" width="47.5" height="20" as="geometry" />
        </mxCell>
      </root>
    </mxGraphModel>
  </diagram>
</mxfile>
